<?xml version="1.0" encoding="UTF-8" standalone="no"?>
<svg width="123px" height="122px" viewBox="0 0 123 122" version="1.1" xmlns="http://www.w3.org/2000/svg" xmlns:xlink="http://www.w3.org/1999/xlink">
    <!-- Generator: Sketch 3.6.1 (26313) - http://www.bohemiancoding.com/sketch -->
    <title>Shape</title>
    <desc>Created with Sketch.</desc>
    <defs>
        <linearGradient x1="100%" y1="5.318462%" x2="0%" y2="100%" id="linearGradient-1">
            <stop stop-color="#9BFF1B" stop-opacity="0.913213315" offset="0%"></stop>
            <stop stop-color="#B1FFC8" offset="100%"></stop>
        </linearGradient>
    </defs>
    <g id="Custom-icons" stroke="none" stroke-width="1" fill="none" fill-rule="evenodd">
        <g id="New-Coda-icon" transform="translate(-134.000000, 0.000000)" fill="url(#linearGradient-1)">
            <path d="M256.30844,6.88595613 C256.222809,7.14285072 256.128319,7.43517904 255.989537,7.66845114 C252.806406,13.0986713 241.201857,23.935489 242.757989,27.2219681 C244.320026,30.5143528 256.825182,56.0000677 229.954599,80.4139122 C206.984679,99.8936088 178.383748,100.673151 178.383748,100.673151 C178.383748,100.673151 161.957258,101.148554 152.508262,109.634934 C150.618463,111.3328 149.398951,113.110393 148.459957,115.398821 C148.371373,115.614377 148.262119,115.874224 148.138101,116.166552 C148.132195,116.178364 148.123337,116.19608 148.117431,116.210844 C147.999319,116.488409 147.866442,116.792548 147.718802,117.114405 C147.67451,117.211848 147.621359,117.318149 147.574114,117.418544 C147.458954,117.660675 147.346748,117.905758 147.222729,118.153794 C147.148909,118.298482 147.072136,118.437264 146.995363,118.578999 C146.886109,118.788649 146.779808,118.998298 146.664648,119.202042 C146.579017,119.352636 146.487479,119.488465 146.398895,119.633153 C146.289641,119.813274 146.18334,120.002254 146.071133,120.167612 C145.976643,120.306394 145.882153,120.409742 145.787663,120.53376 C145.675456,120.681401 145.566202,120.843806 145.453995,120.967824 C145.359506,121.071172 145.265016,121.130228 145.170526,121.21586 C145.058319,121.316255 144.946112,121.440273 144.836858,121.511141 C144.742368,121.567244 144.653784,121.567244 144.562246,121.602678 C144.452992,121.641065 144.343738,121.708979 144.237437,121.708979 L144.234484,121.708979 C142.713787,121.706026 136.084725,110.455815 134.342566,92.2133464 C133.54826,83.8716543 134.09453,75.3970857 136.409534,67.3270522 C139.285573,57.2993047 144.724651,48.2016929 151.705097,40.483044 C154.12345,37.8107497 156.778027,35.4366893 159.403076,32.9740446 C160.507428,31.934655 161.614732,30.9513688 162.722036,30.009422 C163.091138,29.696424 163.460239,29.4100013 163.829341,29.1088145 C164.567544,28.5005354 165.305746,27.8981619 166.046902,27.3341749 C166.483918,26.9975544 166.923887,26.6845564 167.360903,26.3627 C168.031191,25.8725333 168.701479,25.3853194 169.368815,24.9276336 C169.832406,24.60873 170.295998,24.3075432 170.759589,24.0063565 C171.403302,23.5841045 172.047015,23.1707109 172.690728,22.7779869 C173.160225,22.4915642 173.632674,22.214 174.102171,21.9423413 C174.737026,21.5732399 175.37188,21.2189025 176.003782,20.8763764 C176.473279,20.6253875 176.939823,20.3773513 177.406367,20.1381736 C178.044175,19.8133643 178.679029,19.5062719 179.313884,19.2050852 C179.768616,18.9924828 180.220397,18.7739747 180.67513,18.5731835 C181.330654,18.2808552 181.983225,18.0121494 182.635796,17.7493492 C183.058048,17.5751333 183.483253,17.3950118 183.902552,17.2326072 C184.623038,16.9579957 185.340572,16.7099596 186.055152,16.4648762 C186.400631,16.3467638 186.74611,16.2138873 187.088636,16.1046332 C188.139837,15.7621071 189.182179,15.4520619 190.218616,15.1715448 C190.363304,15.1331583 190.502086,15.106583 190.646774,15.0681964 C191.541475,14.8349243 192.433224,14.6164163 193.313162,14.4274364 C193.679311,14.3477105 194.039554,14.2857014 194.40275,14.214834 C195.055321,14.0849103 195.710845,13.9549866 196.354558,13.8486853 C196.762046,13.7837235 197.160675,13.7276201 197.565211,13.6715167 C198.158726,13.5829323 198.752241,13.5002536 199.336897,13.4323389 C199.750291,13.3821412 200.157779,13.3437546 200.565267,13.3024152 C201.132207,13.2492646 201.696194,13.1990668 202.254275,13.1577275 C202.661763,13.1281994 203.063345,13.1045769 203.464928,13.0839072 C204.014151,13.0543791 204.560421,13.0337094 205.103738,13.0189454 C205.493509,13.0100869 205.88328,12.9982757 206.267146,12.9953229 C206.459078,12.9953229 206.65987,12.9835116 206.851802,12.9835116 C207.120508,12.9835116 207.377403,13.0012285 207.646109,13.0041813 C208.221907,13.0100869 208.788847,13.0218982 209.352834,13.0425678 C209.772133,13.0602847 210.188479,13.0780016 210.604826,13.1016241 C211.154049,13.134105 211.697366,13.1724915 212.23773,13.2167837 C212.639313,13.2492646 213.037942,13.2817456 213.430666,13.3230849 C213.965125,13.3762355 214.487773,13.4352918 215.007467,13.5002536 C215.382474,13.5474986 215.757482,13.5888379 216.12363,13.6419886 C216.649231,13.7158088 217.160067,13.7984876 217.66795,13.8811663 C218.004571,13.9343169 218.347097,13.9874675 218.674859,14.0465237 C219.215224,14.1410137 219.731966,14.2473149 220.248708,14.3506633 C220.526272,14.4067667 220.809742,14.4599173 221.0814,14.5189735 C221.745783,14.6607085 222.386543,14.8113019 223.012539,14.964848 C223.115887,14.9914234 223.228094,15.0150458 223.331443,15.0416211 C224.051929,15.2217426 224.742887,15.4077698 225.407269,15.5997025 C225.6494,15.6676172 225.867908,15.7355318 226.10118,15.8063993 C226.517526,15.9304174 226.936825,16.0514826 227.329549,16.1784535 C227.586444,16.2611322 227.825622,16.3408581 228.073658,16.4235369 C228.413231,16.5357437 228.752804,16.6479505 229.071708,16.7572046 C229.316791,16.8428361 229.541205,16.9255148 229.774477,17.0111463 C230.066805,17.1174475 230.353228,17.2207959 230.624887,17.3241443 C230.846348,17.4068231 231.050092,17.486549 231.256788,17.5692277 C231.51073,17.6666705 231.752861,17.7641132 231.98318,17.8586032 C232.17216,17.9353763 232.349329,18.0091966 232.526497,18.0830169 C232.742053,18.174554 232.942844,18.2601855 233.137729,18.3458171 C233.291275,18.4107789 233.438916,18.4757408 233.577698,18.5377498 C233.760772,18.6204285 233.923177,18.6942488 234.079676,18.7680691 C234.194836,18.8212197 234.309995,18.8714175 234.410391,18.9216153 C234.560984,18.9924828 234.679097,19.051539 234.800162,19.1076424 C234.873982,19.146029 234.950755,19.1814627 235.015717,19.2139436 C235.130877,19.2729998 235.213556,19.3143392 235.287376,19.3527258 C235.319857,19.3704426 235.358243,19.3881595 235.381866,19.4029235 C235.461592,19.4442629 235.502931,19.4678854 235.502931,19.4678854 C235.502931,19.4678854 235.588563,19.5092248 235.671241,19.5476113 C235.70077,19.5623754 235.756873,19.5741866 235.798212,19.5859979 C235.907466,19.6214316 236.069871,19.6450541 236.249992,19.6598181 C236.338577,19.6657238 236.424208,19.677535 236.533462,19.6716294 C236.58366,19.6716294 236.639764,19.6627709 236.695867,19.6568653 C236.911422,19.6361956 237.1506,19.5889507 237.428164,19.4974135 C237.448834,19.4915079 237.463598,19.4885551 237.48722,19.4826495 C237.776596,19.3822539 238.107311,19.2168964 238.461648,19.0131524 C238.54728,18.9629547 238.64177,18.9038984 238.733307,18.8448422 C239.099455,18.6115701 239.492179,18.3340058 239.92329,17.9619516 C239.941007,17.9471875 239.955771,17.9383291 239.973488,17.923565 C240.410504,17.5396996 240.894765,17.0465801 241.399695,16.4914515 C241.526666,16.3526694 241.653637,16.2079816 241.783561,16.0573883 C242.31802,15.4402507 242.873148,14.7581513 243.475522,13.9225056 C243.475522,13.9225056 247.030707,10.4618107 249.19807,3.53746803 C249.330947,3.11816881 249.48154,2.70772803 249.632134,2.29728725 C249.770916,1.92228021 249.897887,1.54432035 250.083914,1.18998298 C250.190215,0.989191811 250.314233,0.797259071 250.464826,0.6230432 C250.621325,0.439968895 250.819164,0.283469892 251.034719,0.168310248 C251.102634,0.132876512 251.170548,0.132876512 251.241416,0.109254021 C251.362481,0.0649618503 251.480594,0 251.610517,0 C251.68729,0 251.769969,0.00885843413 251.849695,0.0295281138 C251.891034,0.0383865479 251.932374,0.0531506048 251.973713,0.0679146616 C252.552464,0.283469892 252.903849,0.888796224 253.25228,1.36419886 C253.606618,1.85141273 254.020011,2.25299508 254.477697,2.64276618 C255.272003,3.3219128 256.086979,4.19889778 256.370449,5.23238176 C256.447222,5.51289884 256.494467,5.83770809 256.473798,6.1270836 C256.453128,6.386931 256.391119,6.64087278 256.30844,6.88595613 L256.30844,6.88595613 Z" id="Shape"></path>
        </g>
    </g>
</svg>