<?xml version="1.0" encoding="UTF-8" standalone="no"?>
<svg width="58px" height="58px" viewBox="0 0 58 58" version="1.1" xmlns="http://www.w3.org/2000/svg" xmlns:xlink="http://www.w3.org/1999/xlink">
    <!-- Generator: Sketch 3.6.1 (26313) - http://www.bohemiancoding.com/sketch -->
    <title>Editor</title>
    <desc>Created with Sketch.</desc>
    <defs></defs>
    <g id="SVG" stroke="none" stroke-width="1" fill="none" fill-rule="evenodd">
        <path d="M44,58 L14,58 C6.268,58 0,51.732 0,44 L0,14 C0,6.268 6.268,0 14,0 L44,0 C51.732,0 58,6.268 58,14 L58,44 C58,51.732 51.732,58 44,58 L44,58 Z M30,20 L21,20 L21,10 C21,8.896 20.105,8 19,8 C17.895,8 17,8.896 17,10 L17,20 L8,20 C6.895,20 6,20.895 6,22 C6,23.105 6.895,24 8,24 L17,24 L17,34 C17,35.105 17.895,36 19,36 C20.105,36 21,35.105 21,34 L21,24 L30,24 C31.105,24 32,23.105 32,22 C32,20.895 31.105,20 30,20 L30,20 Z M50,34 L41,34 L41,24 C41,22.895 40.105,22 39,22 C37.895,22 37,22.895 37,24 L37,34 L28,34 C26.895,34 26,34.895 26,36 C26,37.105 26.895,38 28,38 L37,38 L37,48 C37,49.105 37.895,50 39,50 C40.105,50 41,49.105 41,48 L41,38 L50,38 C51.105,38 52,37.105 52,36 C52,34.895 51.105,34 50,34 L50,34 Z" id="Editor" fill="#F27E18"></path>
    </g>
</svg>