<?xml version="1.0" encoding="UTF-8" standalone="no"?>
<svg width="58px" height="58px" viewBox="0 0 58 58" version="1.1" xmlns="http://www.w3.org/2000/svg" xmlns:xlink="http://www.w3.org/1999/xlink">
    <!-- Generator: Sketch 3.6.1 (26313) - http://www.bohemiancoding.com/sketch -->
    <title>Sync</title>
    <desc>Created with Sketch.</desc>
    <defs></defs>
    <g id="SVG" stroke="none" stroke-width="1" fill="none" fill-rule="evenodd">
        <path d="M44,58 L14,58 C6.268,58 0,51.732 0,44 L0,14 C0,6.268 6.268,0 14,0 L44,0 C51.732,0 58,6.268 58,14 L58,44 C58,51.732 51.732,58 44,58 L44,58 Z M0,37.989 L0,41.995 L43.167,41.995 L37.525,47.616 C36.746,48.392 36.746,49.651 37.525,50.427 C38.304,51.203 39.566,51.203 40.346,50.427 L49.393,41.413 C50.172,40.637 50.172,39.379 49.393,38.603 L40.346,29.589 C39.566,28.813 38.304,28.813 37.525,29.589 C36.746,30.365 36.746,31.623 37.525,32.399 L43.135,37.989 L0,37.989 L0,37.989 Z M58,15.987 L14.839,15.987 L20.455,10.389 C21.235,9.612 21.235,8.352 20.455,7.575 C19.676,6.797 18.411,6.797 17.632,7.575 L8.576,16.601 C7.796,17.378 7.796,18.638 8.576,19.416 L17.632,28.442 C18.411,29.219 19.676,29.219 20.455,28.442 C21.235,27.665 21.235,26.405 20.455,25.628 L14.808,19.999 L58,19.999 L58,15.987 L58,15.987 Z" id="Sync" fill="#34C6FD"></path>
    </g>
</svg>