<?xml version="1.0" encoding="UTF-8" standalone="no"?>
<svg width="58px" height="58px" viewBox="0 0 58 58" version="1.1" xmlns="http://www.w3.org/2000/svg" xmlns:xlink="http://www.w3.org/1999/xlink">
    <!-- Generator: Sketch 3.6.1 (26313) - http://www.bohemiancoding.com/sketch -->
    <title>Indexer</title>
    <desc>Created with Sketch.</desc>
    <defs></defs>
    <g id="SVG" stroke="none" stroke-width="1" fill="none" fill-rule="evenodd">
        <path d="M19.111,38.894 C13.648,33.431 13.648,24.574 19.111,19.111 C24.574,13.648 33.431,13.648 38.894,19.111 C44.357,24.574 44.357,33.431 38.894,38.894 C33.431,44.357 24.574,44.357 19.111,38.894 L19.111,38.894 Z M54.987,52.659 L42.828,40.5 C48.732,33.418 48.369,22.877 41.723,16.231 C34.683,9.191 23.27,9.191 16.23,16.231 C9.191,23.27 9.191,34.683 16.23,41.723 C22.704,48.197 32.869,48.7 39.937,43.266 L52.087,55.415 C49.801,57.037 47.016,58 44,58 L14,58 C6.268,58 0,51.732 0,44 L0,14 C0,6.268 6.268,0 14,0 L44,0 C51.732,0 58,6.268 58,14 L58,44 C58,47.272 56.868,50.275 54.987,52.659 L54.987,52.659 Z" id="Indexer" fill="#FFAE00"></path>
    </g>
</svg>