<?xml version="1.0" encoding="UTF-8" standalone="no"?>
<svg width="58px" height="58px" viewBox="0 0 58 58" version="1.1" xmlns="http://www.w3.org/2000/svg" xmlns:xlink="http://www.w3.org/1999/xlink">
    <!-- Generator: Sketch 3.6.1 (26313) - http://www.bohemiancoding.com/sketch -->
    <title>Plugins</title>
    <desc>Created with Sketch.</desc>
    <defs></defs>
    <g id="SVG" stroke="none" stroke-width="1" fill="none" fill-rule="evenodd">
        <path d="M44,58 L14,58 C6.268,58 0,51.732 0,44 L0,14 C0,6.268 6.268,0 14,0 L44,0 C51.732,0 58,6.268 58,14 L58,44 C58,51.732 51.732,58 44,58 L44,58 Z M47,13 C47,11.895 46.105,11 45,11 L13,11 C11.895,11 11,11.895 11,13 L11,45 C11,46.105 11.895,47 13,47 L45,47 C46.105,47 47,46.105 47,45 L47,13 L47,13 Z M37,42 C34.239,42 32,39.761 32,37 C32,34.239 34.239,32 37,32 C39.761,32 42,34.239 42,37 C42,39.761 39.761,42 37,42 L37,42 Z M37,26 C34.239,26 32,23.762 32,21 C32,18.239 34.239,16 37,16 C39.761,16 42,18.239 42,21 C42,23.762 39.761,26 37,26 L37,26 Z M21,42 C18.239,42 16,39.761 16,37 C16,34.239 18.239,32 21,32 C23.761,32 26,34.239 26,37 C26,39.761 23.761,42 21,42 L21,42 Z M21,26 C18.239,26 16,23.762 16,21 C16,18.239 18.239,16 21,16 C23.761,16 26,18.239 26,21 C26,23.762 23.761,26 21,26 L21,26 Z" id="Plugins" fill="#85C300"></path>
    </g>
</svg>