<?xml version="1.0" encoding="UTF-8" standalone="no"?>
<svg width="58px" height="58px" viewBox="0 0 58 58" version="1.1" xmlns="http://www.w3.org/2000/svg" xmlns:xlink="http://www.w3.org/1999/xlink">
    <!-- Generator: Sketch 3.6.1 (26313) - http://www.bohemiancoding.com/sketch -->
    <title>Speed</title>
    <desc>Created with Sketch.</desc>
    <defs></defs>
    <g id="SVG" stroke="none" stroke-width="1" fill="none" fill-rule="evenodd">
        <path d="M36,39 L58,39 L58,43 L44,43 C42.895,43 42,43.896 42,45 C42,46.105 42.895,47 44,47 L57.67,47 C56.295,53.289 50.701,58 44,58 L14,58 C6.268,58 0,51.732 0,44 L0,14 C0,6.268 6.268,0 14,0 L44,0 C50.701,0 56.295,4.711 57.67,11 L12,11 C10.895,11 10,11.896 10,13 C10,14.105 10.895,15 12,15 L58,15 L58,19 L20,19 C18.895,19 18,19.896 18,21 C18,22.105 18.895,23 20,23 L58,23 L58,27 L28,27 C26.895,27 26,27.896 26,29 C26,30.105 26.895,31 28,31 L58,31 L58,35 L36,35 C34.895,35 34,35.896 34,37 C34,38.105 34.895,39 36,39 L36,39 Z" id="Speed" fill="#FF0066"></path>
    </g>
</svg>