<?xml version="1.0" encoding="UTF-8" standalone="no"?>
<svg width="88px" height="57px" viewBox="0 0 88 57" version="1.1" xmlns="http://www.w3.org/2000/svg" xmlns:xlink="http://www.w3.org/1999/xlink">
    <!-- Generator: Sketch 3.6.1 (26313) - http://www.bohemiancoding.com/sketch -->
    <title>Sync</title>
    <desc>Created with Sketch.</desc>
    <defs>
        <linearGradient x1="57.1559918%" y1="0%" x2="8.80637433%" y2="100%" id="linearGradient-1">
            <stop stop-color="#41B9D1" offset="0%"></stop>
            <stop stop-color="#67AAF7" offset="100%"></stop>
        </linearGradient>
    </defs>
    <g id="SVG" stroke="none" stroke-width="1" fill="none" fill-rule="evenodd">
        <g id="Sync">
            <path d="M75.1771855,24.425145 C75.1875757,24.1470063 75.2106848,23.8727067 75.2106848,23.5934163 M73.244972,56.4001525 L15.5924219,56.4001525 C6.98147825,56.4001525 -2.84217094e-14,49.5178997 -2.84217094e-14,40.3458494 C-2.84217094e-14,32.5476008 5.05105616,26.0200756 11.853931,24.2339607 C11.8275972,24.0212777 11.7924856,23.8126257 11.7924856,23.5932243 C11.7924856,17.5048856 16.4272184,12.5642289 22.1436038,12.5642289 C25.2581471,12.5642289 28.0162,14.0597282 29.9138393,16.3773586 C32.7806308,6.88340459 41.1101441,4.26325641e-14 50.9698788,4.26325641e-14 C63.1974976,4.26325641e-14 73.1141992,10.5629356 73.1141992,23.5932243 C73.1141992,24.593871 73.0360937,25.5741707 72.9223393,26.5404579 C73.0298238,26.5352752 73.1373083,26.5229902 73.2447929,26.5229902 C81.1320074,26.5229902 87.5275158,33.3367162 87.5275158,41.7386543 C87.527695,50.1421281 81.1323657,56.4001525 73.244972,56.4001525 L73.244972,56.4001525 L73.244972,56.4001525 L73.244972,56.4001525 L73.244972,56.4001525 L73.244972,56.4001525" id="Shape" fill="#FFFFFF"></path>
            <path d="M27.2730048,47.8838359 L34.7764793,47.9145681 L35.9403102,41.1562637 L58.0534117,41.306126 L61.5408408,20.8682291 L31.886127,20.9331464 L27.2730048,47.8838359 Z" id="Path-25" fill="url(#linearGradient-1)"></path>
            <path d="M37.3176509,34.1914671 L51.9394696,34.1679864 L53.0998619,27.4179694 L38.5293106,27.5063674 L37.3176509,34.1914671 Z" id="Path-26" fill="#FFFFFF"></path>
        </g>
    </g>
</svg>