<?xml version="1.0" standalone="no"?>
<!DOCTYPE svg PUBLIC "-//W3C//DTD SVG 20010904//EN"
 "http://www.w3.org/TR/2001/REC-SVG-20010904/DTD/svg10.dtd">
<svg version="1.0" xmlns="http://www.w3.org/2000/svg"
 width="984.000000pt" height="984.000000pt" viewBox="0 0 984.000000 984.000000"
 preserveAspectRatio="xMidYMid meet">
<metadata>
Created by potrace 1.11, written by Peter Selinger 2001-2013
</metadata>
<g transform="translate(0.000000,984.000000) scale(0.100000,-0.100000)"
fill="#000000" stroke="none">
<path d="M9383 9793 c-32 -6 -79 -56 -103 -110 -24 -53 -50 -120 -55 -143 -2
-8 -8 -27 -14 -42 -6 -16 -7 -28 -3 -28 4 0 2 -4 -3 -8 -6 -4 -21 -34 -33 -66
-16 -45 -18 -63 -10 -73 8 -10 7 -12 -4 -8 -14 6 -19 -2 -28 -43 -1 -4 -9 -15
-17 -24 -9 -10 -13 -18 -9 -18 7 0 -68 -151 -88 -179 -6 -7 -11 -19 -12 -27
-1 -7 -9 -21 -18 -30 -9 -8 -16 -22 -16 -30 0 -8 -4 -14 -9 -14 -5 0 -16 -15
-24 -32 -9 -18 -25 -43 -36 -54 -11 -12 -17 -24 -14 -28 3 -3 -2 -8 -11 -12
-9 -3 -16 -10 -16 -16 0 -8 -39 -55 -97 -115 -12 -13 -19 -23 -16 -23 4 0 -2
-8 -13 -18 -10 -10 -30 -35 -44 -55 -14 -20 -28 -37 -32 -37 -5 0 -8 -4 -8
-10 0 -5 -31 -42 -70 -81 -38 -40 -67 -76 -63 -82 3 -6 1 -7 -4 -4 -6 4 -22
-3 -35 -16 -43 -38 -61 -51 -115 -85 -29 -17 -53 -29 -53 -26 0 4 -6 2 -13 -4
-30 -25 -155 -31 -169 -9 -4 7 -8 9 -8 5 0 -3 -25 7 -56 23 -31 16 -61 26 -65
23 -5 -3 -9 -1 -9 4 0 8 -86 51 -116 57 -6 2 -29 11 -50 20 -51 22 -67 29
-139 55 -33 12 -73 27 -90 33 -16 7 -36 10 -42 9 -7 -2 -13 2 -13 8 0 5 -9 10
-20 10 -12 0 -34 7 -49 15 -16 8 -31 11 -34 8 -4 -3 -12 -1 -20 5 -7 6 -24 13
-37 15 -14 2 -32 7 -40 10 -44 18 -329 87 -370 90 -14 1 -27 5 -30 9 -3 4 -23
9 -45 12 -22 2 -40 5 -40 6 0 1 -11 3 -25 4 -14 2 -34 6 -45 9 -11 4 -40 9
-65 13 -71 10 -85 12 -85 14 0 1 -22 4 -50 6 -85 9 -110 12 -110 14 0 2 0 2
-275 26 -179 16 -715 9 -880 -12 -19 -2 -57 -6 -85 -8 -27 -3 -61 -7 -75 -10
-14 -3 -44 -8 -65 -10 -105 -13 -131 -17 -145 -23 -8 -3 -28 -7 -45 -8 -16 -2
-41 -6 -55 -9 -38 -8 -72 -15 -100 -20 -43 -7 -243 -57 -290 -73 -25 -8 -54
-17 -66 -19 -12 -2 -40 -10 -63 -19 -23 -8 -43 -14 -46 -15 -3 0 -6 0 -7 -1
-2 0 -10 -2 -18 -4 -14 -3 -144 -48 -180 -62 -8 -3 -18 -5 -22 -5 -5 1 -8 -2
-8 -6 0 -4 -8 -8 -17 -9 -10 -1 -36 -10 -58 -19 -22 -10 -43 -17 -47 -16 -5 1
-8 -3 -8 -10 0 -6 -3 -9 -6 -5 -6 6 -140 -48 -161 -65 -7 -6 -13 -8 -13 -5 0
4 -24 -6 -52 -21 -29 -14 -55 -27 -58 -27 -17 -3 -146 -70 -152 -79 -4 -6 -8
-7 -8 -3 0 5 -12 0 -28 -10 -30 -21 -100 -54 -105 -50 -2 1 -11 -5 -20 -13
-31 -29 -47 -41 -47 -36 0 13 -177 -96 -394 -240 -65 -43 -125 -83 -134 -89
-8 -5 -22 -16 -31 -23 -40 -33 -135 -102 -140 -102 -3 0 -19 -13 -36 -28 -51
-47 -137 -112 -148 -112 -6 0 -7 -3 -3 -7 3 -4 -2 -12 -12 -17 -19 -10 -89
-68 -144 -118 -13 -13 -57 -52 -98 -88 -40 -36 -90 -80 -109 -99 -20 -18 -87
-81 -150 -140 -217 -201 -423 -411 -551 -561 -12 -14 -31 -36 -43 -50 -31 -35
-148 -181 -172 -214 -11 -16 -25 -33 -31 -40 -24 -27 -94 -126 -94 -135 0 -5
-7 -11 -15 -15 -8 -3 -15 -12 -15 -20 0 -8 -3 -16 -7 -18 -13 -5 -143 -202
-143 -215 0 -7 -4 -13 -8 -13 -5 0 -15 -12 -22 -27 -8 -16 -20 -35 -26 -43
-12 -15 -122 -211 -185 -330 -30 -55 -108 -224 -192 -410 -79 -178 -223 -649
-253 -830 -3 -19 -8 -38 -10 -41 -2 -4 -6 -24 -10 -44 -3 -21 -8 -47 -10 -59
-2 -11 -7 -36 -9 -53 -3 -18 -8 -50 -11 -70 -3 -21 -7 -54 -10 -73 -2 -19 -6
-42 -9 -50 -2 -8 -7 -51 -11 -94 -3 -44 -8 -89 -10 -99 -26 -136 -25 -823 2
-1062 2 -22 6 -70 8 -107 3 -37 7 -71 9 -75 3 -5 8 -37 11 -73 4 -36 9 -74 11
-85 3 -11 7 -38 9 -60 3 -22 7 -49 9 -60 3 -11 8 -42 11 -70 4 -27 9 -58 12
-68 3 -11 7 -29 9 -40 7 -60 48 -248 90 -417 11 -48 48 -177 70 -250 15 -47
28 -92 30 -100 14 -62 148 -411 185 -483 11 -22 20 -45 20 -52 0 -7 7 -18 15
-25 9 -7 13 -15 11 -17 -5 -6 51 -112 101 -191 18 -29 33 -55 33 -58 0 -2 9
-14 20 -26 11 -12 20 -28 20 -35 0 -8 5 -11 10 -8 6 3 10 3 10 -2 0 -12 42
-58 64 -70 44 -24 120 30 184 132 36 56 142 265 135 265 -3 0 0 7 7 15 7 8 9
15 4 15 -5 0 -4 4 1 8 6 4 15 18 21 32 7 14 26 57 44 95 126 277 377 510 760
708 105 54 362 165 395 171 6 1 39 11 75 23 148 48 239 73 283 79 15 2 31 6
36 9 11 6 237 56 248 54 5 -1 11 0 16 1 12 4 20 6 68 13 25 4 57 10 70 12 13
2 47 7 74 9 28 3 68 8 90 12 22 3 67 7 100 9 33 2 60 4 60 5 0 1 36 3 80 6 84
4 163 10 230 18 22 3 69 7 105 10 62 5 108 11 175 23 17 2 46 6 65 8 19 2 46
7 60 10 14 3 39 8 55 10 49 7 87 13 145 25 30 6 67 13 82 15 15 2 44 8 65 14
21 6 54 12 73 15 19 2 47 9 63 15 15 6 27 8 27 6 0 -2 11 0 25 5 14 5 36 12
48 14 142 27 705 193 802 236 26 12 137 53 150 56 6 1 78 30 160 64 83 34 168
68 190 77 22 9 43 21 47 27 4 6 8 8 8 3 0 -4 21 4 47 18 27 14 54 25 60 25 7
0 13 5 13 12 0 6 3 8 6 5 4 -4 35 9 70 28 35 20 64 33 64 29 0 -3 7 2 16 10 8
9 21 16 28 16 7 0 25 9 40 21 14 11 26 18 26 14 0 -4 15 2 33 13 17 11 57 34
87 50 30 17 82 45 115 63 33 18 66 39 73 46 7 7 20 13 28 13 8 0 14 5 14 10 0
6 4 10 9 10 11 0 97 52 178 107 33 23 64 39 67 36 3 -4 6 -2 6 4 0 6 20 23 45
37 25 15 45 31 45 36 0 6 5 10 12 10 9 0 155 100 195 135 25 21 39 32 96 73
31 24 57 47 57 52 0 6 5 10 11 10 32 0 398 348 391 372 -1 5 1 7 6 4 5 -3 36
24 68 60 32 37 65 72 72 79 6 8 12 19 12 25 0 6 5 8 10 5 6 -3 10 -2 10 4 0 6
10 21 23 34 45 46 77 87 77 96 0 6 6 14 13 18 16 10 88 106 158 208 30 44 60
86 67 93 7 8 10 18 7 23 -4 5 -2 9 4 9 9 0 23 21 70 109 8 14 17 28 21 31 4 3
28 46 55 95 26 50 51 95 56 101 5 6 6 14 2 17 -3 4 0 7 7 7 7 0 11 3 7 6 -3 3
7 29 23 57 16 29 29 55 30 59 0 4 8 25 17 45 9 21 18 40 18 43 1 3 7 19 14 35
6 17 11 34 10 39 0 5 4 12 10 15 6 4 12 18 13 31 2 14 6 28 11 31 4 3 9 15 12
27 2 11 9 30 15 42 6 12 9 24 6 27 -3 4 -1 12 4 19 6 6 13 20 15 30 13 56 38
141 47 158 8 14 7 17 -4 10 -10 -6 -11 -5 -1 7 6 8 14 28 17 44 3 17 15 74 25
128 11 54 23 123 27 155 3 31 8 66 10 77 10 50 16 109 20 225 6 151 6 116 -1
295 -4 83 -6 160 -6 173 1 12 -3 22 -7 22 -4 0 -7 19 -8 43 -1 77 -17 182 -50
332 -3 17 -7 40 -8 53 0 12 -5 22 -9 22 -4 0 -7 6 -6 13 2 12 -8 60 -19 87 -3
8 -7 22 -8 30 -4 20 -10 42 -17 60 -3 8 -11 36 -18 63 -7 26 -16 47 -19 47 -3
0 -7 12 -8 27 -1 15 -5 29 -10 32 -4 3 -8 16 -10 29 -2 12 -10 35 -18 50 -7
15 -14 33 -14 40 0 6 -5 12 -11 12 -5 0 -8 4 -5 8 3 5 -3 26 -14 48 -62 131
-80 184 -78 233 1 28 6 51 10 51 4 0 8 6 8 14 0 8 5 27 12 43 6 15 11 31 10
36 -1 4 2 7 8 7 5 0 10 4 10 9 0 8 40 81 70 126 45 68 105 150 122 167 10 10
16 23 13 28 -4 6 1 10 10 10 8 0 21 12 28 28 6 15 22 35 34 45 13 10 23 23 23
28 0 5 8 17 18 27 9 10 35 40 57 67 22 27 50 60 62 73 13 13 20 29 16 35 -3 5
-1 7 4 4 6 -4 18 3 26 16 8 12 33 42 56 67 22 25 41 48 41 52 0 4 10 17 23 30
12 13 42 47 67 77 25 29 50 59 55 65 6 6 23 29 40 51 16 22 34 45 40 51 5 6
19 23 30 39 11 15 30 38 43 51 12 13 22 28 22 34 0 5 5 10 10 10 6 0 10 5 10
11 0 6 6 17 13 24 30 34 38 47 70 107 19 35 33 71 31 81 -1 9 1 19 6 22 15 9
1 95 -25 148 -24 48 -79 114 -131 158 -27 22 -124 130 -124 138 -1 17 -78 73
-97 70 -4 -1 -18 -4 -30 -6z m-1782 -2686 c-10 -9 -11 -8 -5 6 3 10 9 15 12
12 3 -3 0 -11 -7 -18z m-146 -147 c-3 -5 -12 -10 -18 -10 -7 0 -6 4 3 10 19
12 23 12 15 0z m1030 -880 c3 -5 1 -10 -4 -10 -6 0 -11 5 -11 10 0 6 2 10 4
10 3 0 8 -4 11 -10z"/>
</g>
</svg>
